HIERARCHY
ROOT Hips
{
	OFFSET 103.898903 91.744438 377.834412
	CHANNELS 6 Xposition Yposition Zposition Zrotation Yrotation Xrotation 
	JOINT LeftUpLeg
	{
		OFFSET 0.103458 1.857842 10.548504
		CHANNELS 3 Zrotation Yrotation Xrotation
		JOINT LeftLeg
		{
			OFFSET 43.500000 -0.000038 0.000000
			CHANNELS 3 Zrotation Yrotation Xrotation
			JOINT LeftFoot
			{
				OFFSET 42.372200 0.000008 0.000004
				CHANNELS 3 Zrotation Yrotation Xrotation
				JOINT LeftToe
				{
					OFFSET 17.299992 -0.000003 -0.000013
					CHANNELS 3 Zrotation Yrotation Xrotation
					End Site
					{
						OFFSET 0.000000 0.000000 0.000000
					}
				}
			}
		}
	}
	JOINT RightUpLeg
	{
		OFFSET 0.103456 1.857816 -10.548503
		CHANNELS 3 Zrotation Yrotation Xrotation
		JOINT RightLeg
		{
			OFFSET 43.500042 -0.000023 0.000008
			CHANNELS 3 Zrotation Yrotation Xrotation
			JOINT RightFoot
			{
				OFFSET 42.372265 -0.000008 0.000010
				CHANNELS 3 Zrotation Yrotation Xrotation
				JOINT RightToe
				{
					OFFSET 17.300022 0.000005 0.000000
					CHANNELS 3 Zrotation Yrotation Xrotation
					End Site
					{
						OFFSET 0.000000 0.000000 0.000000
					}
				}
			}
		}
	}
	JOINT Spine
	{
		OFFSET 6.901966 -2.603735 -0.000002
		CHANNELS 3 Zrotation Yrotation Xrotation
		JOINT Spine1
		{
			OFFSET 12.588103 0.000016 0.000000
			CHANNELS 3 Zrotation Yrotation Xrotation
			JOINT Spine2
			{
				OFFSET 12.343200 0.000002 -0.000002
				CHANNELS 3 Zrotation Yrotation Xrotation
				JOINT Neck
				{
					OFFSET 25.832891 -0.000029 0.000006
					CHANNELS 3 Zrotation Yrotation Xrotation
					JOINT Head
					{
						OFFSET 11.766613 0.000029 -0.000002
						CHANNELS 3 Zrotation Yrotation Xrotation
						End Site
						{
							OFFSET 0.000000 0.000000 0.000000
						}
					}
				}
				JOINT LeftShoulder
				{
					OFFSET 19.745903 -1.480385 6.000109
					CHANNELS 3 Zrotation Yrotation Xrotation
					JOINT LeftArm
					{
						OFFSET 11.284124 -0.000024 -0.000022
						CHANNELS 3 Zrotation Yrotation Xrotation
						JOINT LeftForeArm
						{
							OFFSET 33.000057 0.000000 0.000033
							CHANNELS 3 Zrotation Yrotation Xrotation
							JOINT LeftHand
							{
								OFFSET 25.199997 0.000045 -0.000004
								CHANNELS 3 Zrotation Yrotation Xrotation
								End Site
								{
									OFFSET 0.000000 0.000000 0.000000
								}
							}
						}
					}
				}
				JOINT RightShoulder
				{
					OFFSET 19.746105 -1.480396 -6.000069
					CHANNELS 3 Zrotation Yrotation Xrotation
					JOINT RightArm
					{
						OFFSET 11.284142 -0.000028 -0.000010
						CHANNELS 3 Zrotation Yrotation Xrotation
						JOINT RightForeArm
						{
							OFFSET 33.000084 0.000033 0.000011
							CHANNELS 3 Zrotation Yrotation Xrotation
							JOINT RightHand
							{
								OFFSET 25.199783 0.000119 0.000426
								CHANNELS 3 Zrotation Yrotation Xrotation
								End Site
								{
									OFFSET 0.000000 0.000000 0.000000
								}
							}
						}
					}
				}
			}
		}
	}
}
MOTION
Frames: 10
Frame Time: 0.033333
103.898903 91.744438 377.834412 90.801081 4.492487 89.713415 -174.588009 -0.710608 -177.529867 -8.472471 -2.938576 -2.909178 82.191273 2.244673 0.676024 21.454557 0.003105 0.000003 -176.159499 1.912999 178.851140 -14.259488 1.414406 0.992637 84.934140 -0.576888 0.796388 21.454558 -0.003091 -0.000015 6.172339 -0.170394 0.220450 2.331173 -0.351061 0.446865 2.013071 -0.348227 0.448990 19.245209 0.691636 0.397167 -16.680095 -0.021052 0.421871 -71.026659 -81.668524 -111.532659 -13.232931 -5.703019 -3.225744 -8.098028 -12.855701 0.857058 15.074789 -0.767741 -3.510058 102.918206 88.300037 -75.542821 1.132912 -0.026553 7.056186 -14.084352 17.586989 -1.196253 13.031403 4.831597 -3.675093 
103.895699 91.751213 377.840698 90.791703 4.489606 89.699624 -174.570155 -0.723799 -177.537722 -8.440735 -2.940289 -2.906359 82.174805 2.242671 0.676026 21.454557 0.003086 -0.000001 -176.107207 1.928409 178.832002 -14.150651 1.464770 0.992639 84.882053 -0.576872 0.767502 21.454558 -0.003118 -0.000019 6.168965 -0.170390 0.220434 2.324384 -0.338180 0.453404 2.006310 -0.335307 0.455445 19.278856 0.599581 0.392360 -16.703948 0.037034 0.396779 -71.121647 -81.638034 -111.440492 -13.283639 -5.676249 -3.180821 -8.090515 -12.849700 0.857065 15.106391 -0.770719 -3.538275 101.713251 88.276712 -76.748978 1.165804 -0.033112 7.045977 -14.098441 17.583849 -1.196243 13.046040 4.848160 -3.686759 
103.880798 91.764153 377.857910 90.776124 4.473587 89.672194 -174.560647 -0.757705 -177.539443 -8.412302 -2.950344 -2.894205 82.150975 2.233422 0.676018 21.454551 0.003095 -0.000001 -176.018005 1.886602 178.791854 -13.953396 1.422543 0.992642 84.790125 -0.576871 0.776754 21.454560 -0.003106 -0.000019 6.158564 -0.170389 0.220438 2.303657 -0.317880 0.465004 1.985548 -0.314918 0.466907 19.369790 0.343526 0.375981 -16.773572 0.196184 0.324796 -71.948509 -81.547432 -110.621641 -13.481370 -5.740988 -3.011344 -8.046575 -12.819630 0.857058 15.202070 -0.781392 -3.643922 98.682559 88.218307 -79.783542 1.242453 -0.056000 7.022495 -14.148944 17.569605 -1.196240 13.088361 4.895986 -3.739932 
103.861801 91.762268 377.868408 90.784347 4.457906 89.668267 -174.591643 -0.770590 -177.525264 -8.453793 -2.963812 -2.884494 82.169498 2.225908 0.676026 21.454553 0.003088 -0.000001 -176.038550 1.882204 178.768372 -13.977875 1.419370 0.992650 84.809113 -0.576869 0.766437 21.454555 -0.003110 -0.000017 6.154439 -0.170399 0.220447 2.295393 -0.318340 0.466489 1.977291 -0.315388 0.468404 19.374115 0.193586 0.362547 -16.790401 0.285584 0.280146 -72.646281 -81.422583 -109.935194 -13.691541 -5.818924 -2.875336 -7.977453 -12.804985 0.857056 15.118644 -0.774954 -3.716156 97.379496 88.228661 -81.084830 1.234079 -0.060882 7.036398 -14.181000 17.557228 -1.196243 13.063518 4.921010 -3.807526 
103.840599 91.760872 377.874390 90.789962 4.447486 89.681313 -174.617693 -0.788496 -177.514431 -8.486560 -2.977395 -2.869344 82.184518 2.215349 0.676022 21.454553 0.003083 -0.000002 -176.047757 1.868700 178.763099 -13.988955 1.407569 0.992642 84.819885 -0.576869 0.759201 21.454558 -0.003113 -0.000017 6.165494 -0.170392 0.220446 2.317508 -0.321935 0.462907 1.999406 -0.318983 0.464825 19.136768 0.094557 0.350714 -16.650721 0.341867 0.248983 -73.260875 -81.207657 -109.340810 -13.940799 -5.854709 -2.854510 -7.934902 -12.802500 0.857056 14.979233 -0.765388 -3.739744 97.153874 88.411191 -81.292782 1.041456 -0.081471 7.132410 -14.196851 17.550589 -1.196248 13.025620 4.945663 -3.867161 
103.819000 91.759682 377.876801 90.797509 4.438777 89.704549 -174.637350 -0.805891 -177.517122 -8.503869 -2.988670 -2.843211 82.190624 2.197407 0.676031 21.454555 0.003107 0.000003 -176.056472 1.855002 178.769150 -14.001019 1.394262 0.997216 84.829986 -0.581107 0.752431 21.454557 -0.003116 -0.000017 6.168684 -0.170398 0.220451 2.323875 -0.336097 0.456386 2.005779 -0.333201 0.458404 19.061272 0.129689 0.347279 -16.613489 0.312380 0.255710 -73.193209 -81.127566 -109.416687 -14.004031 -5.860865 -2.843238 -7.924578 -12.806231 0.857076 14.836069 -0.754726 -3.695607 98.832414 88.489486 -79.608136 0.947268 -0.055192 7.182205 -14.202124 17.536610 -1.196255 12.997474 4.989993 -3.881056 
103.799004 91.758820 377.877014 90.801266 4.432168 89.731692 -174.652349 -0.825205 -177.525673 -8.512848 -2.996278 -2.814785 82.191860 2.177146 0.672702 21.454555 0.003098 0.000002 -176.059341 1.839096 178.782210 -14.003235 1.383682 1.003315 84.833852 -0.586600 0.744870 21.454560 -0.003105 -0.000016 6.161770 -0.170392 0.220437 2.310018 -0.345192 0.449127 1.991939 -0.342348 0.451207 19.183939 0.143453 0.344314 -16.701015 0.296442 0.257796 -72.823183 -81.206721 -109.779404 -13.882599 -5.860946 -2.822079 -7.934808 -12.810899 0.857065 14.731987 -0.736642 -3.591433 99.887596 88.425296 -78.559203 1.004168 -0.005211 7.170610 -14.196430 17.515569 -1.196251 12.983732 5.076818 -3.827889 
103.781097 91.757530 377.875305 90.801225 4.430277 89.758098 -174.663360 -0.844603 -177.530332 -8.520759 -3.000684 -2.792556 82.190856 2.159587 0.662499 21.454551 0.003098 -0.000000 -176.059423 1.820101 178.798329 -14.005449 1.372986 1.011657 84.836407 -0.593532 0.738265 21.454560 -0.003109 -0.000018 6.151531 -0.172704 0.220440 2.289544 -0.350562 0.443102 1.971452 -0.347741 0.445211 19.387523 0.143560 0.341313 -16.836442 0.289722 0.256616 -72.349557 -81.348646 -110.239718 -13.691823 -5.855318 -2.792442 -7.940432 -12.812140 0.857063 14.726322 -0.728851 -3.467423 100.424825 88.295556 -78.035533 1.135995 0.053589 7.131454 -14.183701 17.490110 -1.196239 12.991570 5.188434 -3.749942 
103.765198 91.755859 377.873413 90.798814 4.431471 89.781942 -174.668988 -0.862508 -177.505989 -8.525708 -3.002487 -2.791742 82.188950 2.154289 0.641121 21.454553 0.003083 -0.000001 -176.055817 1.798698 178.815486 -14.007306 1.361484 1.021507 84.838019 -0.601365 0.732809 21.454555 -0.003111 -0.000018 6.142132 -0.174115 0.220446 2.270754 -0.351680 0.438644 1.952652 -0.348882 0.440776 19.588334 0.124521 0.337691 -16.965792 0.296173 0.250253 -71.971575 -81.482900 -110.604976 -13.520282 -5.849954 -2.741429 -7.931169 -12.799940 0.857060 14.794533 -0.750336 -3.355650 100.540289 88.149240 -77.933790 1.292591 0.107466 7.090367 -14.170553 17.466551 -1.196251 13.018262 5.283930 -3.723359 
103.751801 91.753670 377.872711 90.793117 4.437188 89.799434 -174.666720 -0.880695 -177.486017 -8.527910 -3.002957 -2.793663 82.187455 2.146308 0.599407 21.454550 0.003088 -0.000002 -176.047935 1.775817 178.830308 -14.008040 1.349544 1.031465 84.839036 -0.609091 0.728476 21.454560 -0.003108 -0.000016 6.137700 -0.175240 0.220436 2.261888 -0.350900 0.436882 1.943804 -0.348091 0.439026 19.707053 0.081455 0.331863 -17.037611 0.322551 0.235526 -71.872797 -81.550266 -110.697245 -13.434148 -5.845465 -2.698488 -7.923656 -12.776706 0.857054 14.827139 -0.797378 -3.282912 100.499923 88.050468 -77.983425 1.406031 0.145072 7.069999 -14.156920 17.448090 -1.196243 13.024099 5.316534 -3.734055 
